<?xml version="1.0" encoding="utf-8"?>
<!-- Generator: Adobe Illustrator 16.0.0, SVG Export Plug-In . SVG Version: 6.00 Build 0)  -->
<!DOCTYPE svg PUBLIC "-//W3C//DTD SVG 1.1//EN" "http://www.w3.org/Graphics/SVG/1.1/DTD/svg11.dtd">
<svg version="1.1" id="Capa_1" xmlns="http://www.w3.org/2000/svg" xmlns:xlink="http://www.w3.org/1999/xlink" x="0px" y="0px"
	 width="612px" height="792px" viewBox="0 0 612 792" enable-background="new 0 0 612 792" xml:space="preserve">
<g>
	<path fill="#434142" d="M606.7,397.236c0,165.503-134.176,299.677-299.684,299.677c-165.504,0-299.684-134.174-299.684-299.677
		c0-165.514,134.18-299.683,299.684-299.683C472.524,97.554,606.7,231.723,606.7,397.236z"/>
	<path fill="#ECEDEF" d="M559.694,397.236c0,139.55-113.129,252.675-252.678,252.675c-139.552,0-252.677-113.125-252.677-252.675
		c0-139.554,113.125-252.68,252.677-252.68C446.565,144.557,559.694,257.683,559.694,397.236z"/>
	<g>
		<path fill="#CFA1C6" d="M316.878,413.259l184.088-16.329l-184.184-15.692l-16.344-184.175l-15.68,184.083L100.62,396.93
			l184.052,16.425l15.767,184.049L316.878,413.259z"/>
		<g>
			<path fill="#CFA1C6" d="M320.354,397.187l101.178-120.879L300.987,377.929L180.05,276.702l101.568,120.484l-101.541,120.58
				l120.91-101.102l120.518,101.494L320.354,397.187z"/>
		</g>
	</g>
	<polygon fill="#B13885" points="390.165,144.103 299.606,367.187 282.319,419.874 223.877,650.36 316.896,427.28 333.354,377.062 	
		"/>
	<path fill="#ECEDEF" d="M339.507,397.236c0,17.94-14.551,32.485-32.49,32.485c-17.946,0-32.487-14.545-32.487-32.485
		c0-17.945,14.541-32.491,32.487-32.491C324.956,364.745,339.507,379.291,339.507,397.236z"/>
</g>
</svg>
